[img]http://img834.imageshack.us/img834/8431/iamlegend2007.jpg[/img]

[b][size=200][color=black]PLOT[/color][/size][/b]

[code]Years after a plague kills most of humanity and transforms
the rest into monsters, the sole survivor in New York City struggles 
valiantly to find a cure.[/code]

[b][size=200][color=black]IMDB[/color][/size][/b]

[code]http://www.imdb.com/title/tt0480249/[/code]

[b][size=200][color=black]MOVIE INFO[/color][/size][/b]

[code]I Am Legend [ALTERNATE ENDING] [2007] BRRip x264 AAC-V3nom

Format                                   : MPEG-4
Format profile                           : Base Media / Version 2
Codec ID                                 : mp42
File size                                : 313 MiB
Duration                                 : 1h 43mn
Overall bit rate mode                    : Variable
Overall bit rate                         : 422 Kbps
Encoded date                             : UTC 2013-01-14 10:19:01
Tagged date                              : UTC 2013-01-14 11:21:16

Video
ID                                       : 1
Format                                   : AVC
Format/Info                              : Advanced Video Codec
Format profile                           : Main@L2.1
Format settings, CABAC                   : Yes
Format settings, ReFrames                : 4 frames
Codec ID                                 : avc1
Codec ID/Info                            : Advanced Video Coding
Duration                                 : 1h 43mn
Bit rate mode                            : Variable
Bit rate                                 : 324 Kbps
Width                                    : 640 pixels
Height                                   : 272 pixels
Display aspect ratio                     : 2.40:1
Original display aspect ratio            : 2.40:1
Frame rate mode                          : Variable
Frame rate                               : 23.976 fps
Minimum frame rate                       : 7.992 fps
Maximum frame rate                       : 23.981 fps
Color space                              : YUV
Chroma subsampling                       : 4:2:0
Bit depth                                : 8 bits
Scan type                                : Progressive
Bits/(Pixel*Frame)                       : 0.078
Stream size                              : 238 MiB (76%)
Writing library                          : x264 core 112

Audio
ID                                       : 2
Format                                   : AAC
Format/Info                              : Advanced Audio Codec
Format profile                           : LC
Codec ID                                 : 40
Duration                                 : 1h 43mn
Bit rate mode                            : Variable
Bit rate                                 : 96.0 Kbps
Maximum bit rate                         : 164 Kbps
Channel(s)                               : 2 channels
Channel positions                        : Front: L R
Sampling rate                            : 48.0 KHz
Compression mode                         : Lossy
Delay relative to video                  : 167ms
Stream size                              : 71.3 MiB (23%)
Encoded date                             : UTC 2013-01-14 10:19:01
Tagged date                              : UTC 2013-01-14 11:21:11[/code]

[b][size=200][color=black]SOURCE[/color][/size][/b]

[code]I.Am.Legend.ALTERNATE.ENDING.2007.1080p.BrRip.x264.YIFY(Thanks)[/code]

[b][size=200][color=black]SCREENSHOTS[/color][/size][/b]

[img]http://img15.imageshack.us/img15/7610/iamlegendalternateendin.jpg[/img]

[img]http://kastatic.com/i2/users/133df62bbf28e62494bb17fe11078f1a.gif[/img][img]http://kastatic.com/i2/users/133df62bbf28e62494bb17fe11078f1a.gif[/img]